<?xml version="1.0" encoding="UTF-8"?>
<!DOCTYPE svg PUBLIC "-//W3C//DTD SVG 1.1//EN" "http://www.w3.org/Graphics/SVG/1.1/DTD/svg11.dtd">
<svg xmlns="http://www.w3.org/2000/svg" version="1.1" width="1040px" height="1078px" style="shape-rendering:geometricPrecision; text-rendering:geometricPrecision; image-rendering:optimizeQuality; fill-rule:evenodd; clip-rule:evenodd" xmlns:xlink="http://www.w3.org/1999/xlink">
<g><path style="opacity:0.874" fill="#020202" d="M 1039.5,515.5 C 1039.5,530.5 1039.5,545.5 1039.5,560.5C 1032.02,685.389 986.519,794.722 903,888.5C 872.362,920.603 839.195,948.603 803.5,972.5C 802.778,972.082 802.278,971.416 802,970.5C 795.086,975.375 787.919,979.875 780.5,984C 781.056,984.383 781.389,984.883 781.5,985.5C 730.965,1015.41 676.632,1036.25 618.5,1048C 524.575,1065.31 432.908,1058.31 343.5,1027C 258.008,994.892 185.008,944.392 124.5,875.5C 114.365,863.25 104.699,850.584 95.5,837.5C 97.0281,837.483 97.5281,836.816 97,835.5C 96.0471,833.627 94.8804,833.294 93.5,834.5C 49.1079,770.923 20.4413,700.923 7.5,624.5C 8.64911,624.209 9.31577,623.376 9.5,622C 9.59588,619.23 8.59588,618.396 6.5,619.5C 3.42062,599.445 1.08728,579.445 -0.5,559.5C -0.5,544.5 -0.5,529.5 -0.5,514.5C 10.5248,353.16 79.0248,222.493 205,122.5C 205.333,122.833 205.667,123.167 206,123.5C 207.833,121.667 209.667,119.833 211.5,118C 326.993,35.1316 456.326,3.46492 599.5,23C 718.525,42.941 819.691,97.1077 903,185.5C 977.532,269.266 1021.87,367.266 1036,479.5C 1037.18,491.652 1038.34,503.652 1039.5,515.5 Z"/></g>
<g><path style="opacity:1" fill="#fefefe" d="M 1005.5,415.5 C 1005.29,418.495 1005.96,421.162 1007.5,423.5C 1010.48,435.71 1012.81,448.043 1014.5,460.5C 1014.28,465.1 1014.95,469.433 1016.5,473.5C 1033.87,641.406 982.872,784.239 863.5,902C 743.684,1010.76 603.017,1054.42 441.5,1033C 308.082,1009.57 200.249,944.4 118,837.5C 68.7593,770.986 37.5926,696.653 24.5,614.5C 24.6382,609.586 23.9715,604.919 22.5,600.5C 5.14662,433.017 55.8133,290.517 174.5,173C 302.358,57.3493 451.692,15.016 622.5,46C 744.952,73.8315 844.452,137.331 921,236.5C 960.556,290.605 988.722,350.271 1005.5,415.5 Z"/></g>
<g><path style="opacity:1" fill="#d0d0d0" d="M 516.5,56.5 C 523.346,55.2123 527.18,57.879 528,64.5C 526.901,61.9613 525.234,61.2946 523,62.5C 518.868,59.2351 515.534,59.9017 513,64.5C 512.333,63.5 512.333,62.5 513,61.5C 514.649,60.1155 515.816,58.4488 516.5,56.5 Z"/></g>
<g><path style="opacity:1" fill="#676767" d="M 523.5,70.5 C 521.292,70.7005 518.959,70.3672 516.5,69.5C 516.5,68.5 516.5,67.5 516.5,66.5C 518.604,66.2011 520.604,66.5344 522.5,67.5C 523.127,68.4168 523.461,69.4168 523.5,70.5 Z"/></g>
<g><path style="opacity:1" fill="#2f2f2f" d="M 516.5,69.5 C 518.959,70.3672 521.292,70.7005 523.5,70.5C 524.924,72.5145 525.59,74.8478 525.5,77.5C 524.59,75.9812 523.757,74.3146 523,72.5C 520.536,73.9091 518.369,73.5757 516.5,71.5C 516.5,70.8333 516.5,70.1667 516.5,69.5 Z"/></g>
<g><path style="opacity:1" fill="#000000" d="M 516.5,71.5 C 518.369,73.5757 520.536,73.9091 523,72.5C 523.757,74.3146 524.59,75.9812 525.5,77.5C 530.028,97.9624 534.362,118.629 538.5,139.5C 538.335,142.85 538.502,146.183 539,149.5C 539.232,150.737 539.732,151.737 540.5,152.5C 544.15,188.144 547.65,223.811 551,259.5C 554.265,279.944 557.932,300.278 562,320.5C 565.557,328.369 569.557,336.036 574,343.5C 588.097,360.423 601.597,377.756 614.5,395.5C 614.662,397.527 614.495,399.527 614,401.5C 612.906,403.078 612.072,404.745 611.5,406.5C 608.33,408.425 604.997,409.758 601.5,410.5C 596.142,410.515 592.809,413.182 591.5,418.5C 591.543,419.416 591.876,420.083 592.5,420.5C 597.763,435.697 603.596,450.697 610,465.5C 619.155,486.652 628.488,507.652 638,528.5C 654.994,559.151 671.494,590.151 687.5,621.5C 698.718,645.331 710.218,668.998 722,692.5C 734.405,724.842 747.405,756.842 761,788.5C 764.011,795.218 765.344,802.218 765,809.5C 761.474,818.705 756.308,826.872 749.5,834C 735.674,842.342 722.008,850.842 708.5,859.5C 705.536,860.472 702.536,860.638 699.5,860C 696.167,858 692.833,856 689.5,854C 677.94,853.78 668.273,857.947 660.5,866.5C 659.5,866.833 658.833,867.5 658.5,868.5C 656.006,870.594 656.006,872.594 658.5,874.5C 658.721,875.735 659.388,876.735 660.5,877.5C 662.636,878.793 664.636,878.793 666.5,877.5C 667.167,877.5 667.5,877.167 667.5,876.5C 672.293,872.929 677.627,871.429 683.5,872C 690.912,876.741 697.745,882.241 704,888.5C 705.112,890.39 705.946,892.39 706.5,894.5C 704.927,898.645 703.093,902.645 701,906.5C 697.833,909.333 694.667,912.167 691.5,915C 666.697,929.235 642.364,944.235 618.5,960C 614.572,961.325 610.572,961.658 606.5,961C 603.126,957.99 599.792,954.99 596.5,952C 583.253,952.411 570.919,949.411 559.5,943C 554.06,941.826 549.06,942.826 544.5,946C 538.658,949.754 532.991,953.754 527.5,958C 521.171,960.384 515.171,959.717 509.5,956C 503.687,950.925 497.354,946.592 490.5,943C 487.5,942.333 484.5,942.333 481.5,943C 472.737,946.737 463.737,949.237 454.5,950.5C 451.027,948.232 447.361,948.065 443.5,950C 441.859,951.129 440.859,952.629 440.5,954.5C 435.188,963.278 428.188,964.778 419.5,959C 405.347,951.425 391.681,943.092 378.5,934C 366.013,929.15 354.847,922.317 345,913.5C 341.443,908.748 338.277,903.748 335.5,898.5C 335.152,894.915 335.819,891.582 337.5,888.5C 338.203,886.284 339.536,884.451 341.5,883C 346.014,879.909 350.347,876.575 354.5,873C 357.406,871.682 360.406,871.348 363.5,872C 366.553,873.527 369.553,875.027 372.5,876.5C 373.167,877.167 373.833,877.833 374.5,878.5C 376.56,879.811 378.726,879.811 381,878.5C 382.182,876.656 383.349,874.823 384.5,873C 384.192,871.541 383.525,870.374 382.5,869.5C 382.5,868.833 382.167,868.5 381.5,868.5C 375.052,862.435 367.719,857.601 359.5,854C 352.981,852.84 347.647,854.84 343.5,860C 340.262,861.368 336.928,861.701 333.5,861C 327.5,856.667 321.5,852.333 315.5,848C 302.743,842.373 291.91,834.206 283,823.5C 280.393,818.62 278.06,813.62 276,808.5C 275.333,804.833 275.333,801.167 276,797.5C 282.938,779.626 290.938,762.293 300,745.5C 302.155,738.545 304.155,731.545 306,724.5C 321.382,690.068 337.048,655.734 353,621.5C 368.417,593.742 383.417,565.742 398,537.5C 411.055,506.397 424.888,475.731 439.5,445.5C 440.924,443.485 441.59,441.152 441.5,438.5C 443.229,434.155 445.062,429.822 447,425.5C 448.445,420.277 446.945,416.11 442.5,413C 438.278,411.059 434.278,408.892 430.5,406.5C 426.922,403.367 425.589,399.367 426.5,394.5C 440.106,377.377 453.606,360.043 467,342.5C 471.412,336.595 475.079,330.262 478,323.5C 481.973,305.22 485.473,286.886 488.5,268.5C 489.268,267.737 489.768,266.737 490,265.5C 490.498,262.183 490.665,258.85 490.5,255.5C 491.543,246.531 492.21,237.531 492.5,228.5C 494.126,222.072 494.793,215.405 494.5,208.5C 497.246,185.722 499.413,162.722 501,139.5C 504.825,124.845 508.325,110.178 511.5,95.5C 512.66,91.3187 513.66,86.9854 514.5,82.5C 514.659,78.7091 515.325,75.0424 516.5,71.5 Z"/></g>
<g><path style="opacity:1" fill="#b4b4b4" d="M 514.5,82.5 C 513.66,86.9854 512.66,91.3187 511.5,95.5C 511.335,92.4816 511.502,89.4816 512,86.5C 512.122,84.563 512.955,83.2297 514.5,82.5 Z"/></g>
<g><path style="opacity:1" fill="#4d4d4d" d="M 538.5,139.5 C 539.895,143.591 540.562,147.924 540.5,152.5C 539.732,151.737 539.232,150.737 539,149.5C 538.502,146.183 538.335,142.85 538.5,139.5 Z"/></g>
<g><path style="opacity:1" fill="#5c5c5c" d="M 550.5,201.5 C 552.561,202.751 552.894,204.418 551.5,206.5C 550.548,204.955 550.215,203.288 550.5,201.5 Z"/></g>
<g><path style="opacity:1" fill="#c3c3c3" d="M 494.5,208.5 C 494.793,215.405 494.126,222.072 492.5,228.5C 492.334,222.158 492.5,215.825 493,209.5C 493.383,208.944 493.883,208.611 494.5,208.5 Z"/></g>
<g><path style="opacity:1" fill="#444444" d="M 490.5,255.5 C 490.665,258.85 490.498,262.183 490,265.5C 489.768,266.737 489.268,267.737 488.5,268.5C 488.77,263.972 489.437,259.639 490.5,255.5 Z"/></g>
<g><path style="opacity:1" fill="#525252" d="M 614.5,395.5 C 616.345,399.884 615.345,403.551 611.5,406.5C 612.072,404.745 612.906,403.078 614,401.5C 614.495,399.527 614.662,397.527 614.5,395.5 Z"/></g>
<g><path style="opacity:1" fill="#777777" d="M 426.5,394.5 C 425.589,399.367 426.922,403.367 430.5,406.5C 426.784,405.113 424.45,402.446 423.5,398.5C 424.521,397.099 425.521,395.765 426.5,394.5 Z"/></g>
<g><path style="opacity:1" fill="#626262" d="M 601.5,410.5 C 597.139,412.532 594.139,415.865 592.5,420.5C 591.876,420.083 591.543,419.416 591.5,418.5C 592.809,413.182 596.142,410.515 601.5,410.5 Z"/></g>
<g><path style="opacity:1" fill="#999999" d="M 1005.5,415.5 C 1006.77,417.905 1007.43,420.572 1007.5,423.5C 1005.96,421.162 1005.29,418.495 1005.5,415.5 Z"/></g>
<g><path style="opacity:1" fill="#5a5a5a" d="M 441.5,438.5 C 441.59,441.152 440.924,443.485 439.5,445.5C 439.41,442.848 440.076,440.515 441.5,438.5 Z"/></g>
<g><path style="opacity:1" fill="#a3a3a3" d="M 1014.5,460.5 C 1015.9,464.591 1016.56,468.924 1016.5,473.5C 1014.95,469.433 1014.28,465.1 1014.5,460.5 Z"/></g>
<g><path style="opacity:1" fill="#868686" d="M 678.5,595.5 C 679.496,595.414 680.329,595.748 681,596.5C 681.681,598.529 682.014,600.529 682,602.5C 680.733,600.186 679.566,597.852 678.5,595.5 Z"/></g>
<g><path style="opacity:1" fill="#848484" d="M 22.5,600.5 C 23.9715,604.919 24.6382,609.586 24.5,614.5C 23.0285,610.081 22.3618,605.414 22.5,600.5 Z"/></g>
<g><path style="opacity:0.247" fill="#4c4a4a" d="M 7.5,624.5 C 6.69929,622.958 6.36596,621.292 6.5,619.5C 8.59588,618.396 9.59588,619.23 9.5,622C 9.31577,623.376 8.64911,624.209 7.5,624.5 Z"/></g>
<g><path style="opacity:0.224" fill="#5b5555" d="M 95.5,837.5 C 94.8333,836.5 94.1667,835.5 93.5,834.5C 94.8804,833.294 96.0471,833.627 97,835.5C 97.5281,836.816 97.0281,837.483 95.5,837.5 Z"/></g>
<g><path style="opacity:1" fill="#b5b5b5" d="M 353.5,858.5 C 354.833,859.5 356.167,860.5 357.5,861.5C 354.413,861.543 351.413,861.71 348.5,862C 349.846,860.331 351.513,859.164 353.5,858.5 Z"/></g>
<g><path style="opacity:1" fill="#484848" d="M 353.5,858.5 C 356.829,858.215 359.829,858.882 362.5,860.5C 364.154,863.666 366.821,865.333 370.5,865.5C 373.734,866.089 375.067,868.089 374.5,871.5C 370.393,871.075 366.726,869.575 363.5,867C 360.447,866.821 357.447,866.321 354.5,865.5C 355.325,864.614 356.325,864.281 357.5,864.5C 357.5,863.5 357.5,862.5 357.5,861.5C 356.167,860.5 354.833,859.5 353.5,858.5 Z"/></g>
<g><path style="opacity:1" fill="#888888" d="M 362.5,860.5 C 365.511,861.669 368.178,863.336 370.5,865.5C 366.821,865.333 364.154,863.666 362.5,860.5 Z"/></g>
<g><path style="opacity:1" fill="#515151" d="M 668.5,871.5 C 666.821,871.715 665.821,871.048 665.5,869.5C 665.751,867.83 666.418,866.33 667.5,865C 672.245,863.21 676.745,861.043 681,858.5C 681.5,858.833 682,859.167 682.5,859.5C 681.94,861.854 681.273,864.187 680.5,866.5C 675.904,867.024 671.904,868.69 668.5,871.5 Z"/></g>
<g><path style="opacity:1" fill="#626262" d="M 658.5,868.5 C 658.5,870.5 658.5,872.5 658.5,874.5C 656.006,872.594 656.006,870.594 658.5,868.5 Z"/></g>
<g><path style="opacity:1" fill="#4d4d4d" d="M 382.5,869.5 C 383.525,870.374 384.192,871.541 384.5,873C 383.349,874.823 382.182,876.656 381,878.5C 378.726,879.811 376.56,879.811 374.5,878.5C 379.927,878.068 382.594,875.068 382.5,869.5 Z"/></g>
<g><path style="opacity:1" fill="#c8c8c8" d="M 660.5,866.5 C 659.592,868.689 659.925,870.856 661.5,873C 662.167,873.667 662.833,873.667 663.5,873C 661.74,869.612 662.407,868.446 665.5,869.5C 665.821,871.048 666.821,871.715 668.5,871.5C 667.067,872.833 665.733,874.333 664.5,876C 665.448,876.483 666.448,876.649 667.5,876.5C 667.5,877.167 667.167,877.5 666.5,877.5C 663.447,877.428 660.781,876.428 658.5,874.5C 658.5,872.5 658.5,870.5 658.5,868.5C 658.833,867.5 659.5,866.833 660.5,866.5 Z"/></g>
<g><path style="opacity:1" fill="#a0a0a0" d="M 381.5,868.5 C 382.167,868.5 382.5,868.833 382.5,869.5C 382.594,875.068 379.927,878.068 374.5,878.5C 373.833,877.833 373.167,877.167 372.5,876.5C 378.026,876.64 381.026,873.973 381.5,868.5 Z"/></g>
<g><path style="opacity:1" fill="#575757" d="M 658.5,874.5 C 660.781,876.428 663.447,877.428 666.5,877.5C 664.636,878.793 662.636,878.793 660.5,877.5C 659.388,876.735 658.721,875.735 658.5,874.5 Z"/></g>
<g><path style="opacity:1" fill="#8e8e8e" d="M 337.5,888.5 C 335.819,891.582 335.152,894.915 335.5,898.5C 334.366,896.034 334.199,893.367 335,890.5C 335.417,889.244 336.25,888.577 337.5,888.5 Z"/></g>
<g><path style="opacity:1" fill="#747474" d="M 454.5,950.5 C 449.001,949.491 444.335,950.825 440.5,954.5C 440.859,952.629 441.859,951.129 443.5,950C 447.361,948.065 451.027,948.232 454.5,950.5 Z"/></g>
<g><path style="opacity:0.278" fill="#6a6565" d="M 803.5,972.5 C 797.697,979.279 790.363,983.613 781.5,985.5C 781.389,984.883 781.056,984.383 780.5,984C 787.919,979.875 795.086,975.375 802,970.5C 802.278,971.416 802.778,972.082 803.5,972.5 Z"/></g>
</svg>
